<?xml version="1.0" encoding="UTF-8"?>
<!DOCTYPE svg PUBLIC "-//W3C//DTD SVG 1.1//EN" "http://www.w3.org/Graphics/SVG/1.1/DTD/svg11.dtd">
<svg xmlns="http://www.w3.org/2000/svg" version="1.1" width="980px" height="980px" style="shape-rendering:geometricPrecision; text-rendering:geometricPrecision; image-rendering:optimizeQuality; fill-rule:evenodd; clip-rule:evenodd" xmlns:xlink="http://www.w3.org/1999/xlink">
<g><path style="opacity:1" fill="#6662d9" d="M 745.5,63.5 C 747.628,66.1444 749.128,69.1444 750,72.5C 753.143,76.1157 755.976,79.7824 758.5,83.5C 763.289,93.2111 766.289,103.544 767.5,114.5C 767.617,116.484 766.95,118.15 765.5,119.5C 756.593,124.109 748.26,129.443 740.5,135.5C 732.496,139.843 725.163,145.176 718.5,151.5C 717.833,151.5 717.5,151.833 717.5,152.5C 710.91,156.753 704.91,161.753 699.5,167.5C 684.894,181.274 670.727,195.607 657,210.5C 652.711,217.284 647.877,223.617 642.5,229.5C 640.954,225.921 639.287,222.254 637.5,218.5C 635.833,217.333 634.167,216.167 632.5,215C 579.333,214.533 526.166,214.033 473,213.5C 421.502,214.186 370.002,214.519 318.5,214.5C 318.167,214.5 317.833,214.5 317.5,214.5C 307.166,216.698 303.333,223.032 306,233.5C 308.418,240.422 313.252,243.422 320.5,242.5C 408.5,245.091 496.5,245.091 584.5,242.5C 600.531,242.176 616.531,242.676 632.5,244C 619.207,262.744 607.04,282.244 596,302.5C 594.811,300.767 593.644,299.1 592.5,297.5C 591.746,294.909 590.079,293.076 587.5,292C 498.854,289.154 410.187,288.821 321.5,291C 307.564,292.337 302.73,299.837 307,313.5C 309.4,315.415 311.9,317.081 314.5,318.5C 316.607,319.468 318.941,319.802 321.5,319.5C 394.832,322.033 468.166,322.033 541.5,319.5C 557.056,319.443 572.389,319.443 587.5,319.5C 560.465,373.937 540.798,430.937 528.5,490.5C 527.5,490.833 526.833,491.5 526.5,492.5C 513.285,504.21 500.452,516.544 488,529.5C 486.539,525.74 484.039,522.907 480.5,521C 424.825,518.138 369.159,518.138 313.5,521C 305.766,525.406 303.266,531.906 306,540.5C 307.573,545.071 310.74,547.904 315.5,549C 345.517,549.81 375.517,550.643 405.5,551.5C 419.113,549.929 432.78,549.262 446.5,549.5C 453.167,550.167 459.833,550.833 466.5,551.5C 454.922,562.577 443.422,573.91 432,585.5C 430.06,588.928 428.894,592.594 428.5,596.5C 390.494,597.04 352.494,597.874 314.5,599C 308.659,601.291 305.659,605.624 305.5,612C 305.26,618.873 308.26,623.54 314.5,626C 421.162,629.059 527.828,629.059 634.5,626C 639.524,623.475 642.191,619.308 642.5,613.5C 642.266,607.188 639.599,602.355 634.5,599C 578.489,598.453 522.489,597.453 466.5,596C 493.729,568.938 520.729,541.772 547.5,514.5C 548.833,513.833 549.833,512.833 550.5,511.5C 603.475,500.564 654.475,483.731 703.5,461C 724.027,451.571 744.027,441.404 763.5,430.5C 764.487,466.124 764.82,501.79 764.5,537.5C 764.101,542.422 761.767,546.255 757.5,549C 748.647,553.925 740.314,559.591 732.5,566C 740.234,571.522 747.9,577.022 755.5,582.5C 757.127,584.63 758.96,586.63 761,588.5C 761.374,590.898 761.374,593.231 761,595.5C 762.147,594.542 763.147,594.875 764,596.5C 763.929,620.175 764.096,643.841 764.5,667.5C 764.739,669.467 764.406,671.301 763.5,673C 800.498,673.5 837.498,673.667 874.5,673.5C 880.97,674.465 885.136,678.132 887,684.5C 887.667,745.167 887.667,805.833 887,866.5C 885.851,876.781 883.018,886.447 878.5,895.5C 875.976,899.218 873.143,902.884 870,906.5C 869.128,909.856 867.628,912.856 865.5,915.5C 855.073,929.391 841.406,938.891 824.5,944C 818.674,946.099 812.674,947.432 806.5,948C 625.833,948.667 445.167,948.667 264.5,948C 240.956,945.399 221.623,935.233 206.5,917.5C 206.406,913.646 204.572,910.979 201,909.5C 199.035,903.868 195.869,899.201 191.5,895.5C 188.691,890.542 187.024,885.209 186.5,879.5C 186.061,871.85 185.061,864.183 183.5,856.5C 183.333,790.166 183.5,723.832 184,657.5C 185.291,650.895 188.958,646.228 195,643.5C 196.878,640.387 198.712,637.387 200.5,634.5C 207.631,626.868 214.964,619.368 222.5,612C 210.333,599.833 198.167,587.667 186,575.5C 184.293,573.091 183.46,570.425 183.5,567.5C 183.667,469.166 183.5,370.833 183,272.5C 136.718,274.492 90.2179,275.159 43.5,274.5C 37.6627,273.83 33.496,270.83 31,265.5C 30.3333,246.5 30.3333,227.5 31,208.5C 32.0314,205.461 33.8647,202.961 36.5,201C 45.3393,195.414 54.0059,189.581 62.5,183.5C 54.5539,177.187 46.2206,171.353 37.5,166C 34.9598,163.795 32.7932,161.295 31,158.5C 30.096,139.799 30.4293,121.132 32,102.5C 42.369,62.464 67.869,38.6307 108.5,31C 301.167,30.3333 493.833,30.3333 686.5,31C 704.875,33.3572 721.208,40.3572 735.5,52C 739.439,55.4294 742.772,59.2628 745.5,63.5 Z"/></g>
<g><path style="opacity:1" fill="#817099" d="M 115.5,60.5 C 112.689,61.475 109.689,62.1417 106.5,62.5C 108.988,60.6122 111.988,59.9455 115.5,60.5 Z"/></g>
<g><path style="opacity:1" fill="#f09d35" d="M 115.5,60.5 C 149.224,59.1128 171.39,74.4461 182,106.5C 183.636,152.801 183.97,199.134 183,245.5C 142.24,245.507 101.407,245.173 60.5,244.5C 60.3336,236.826 60.5003,229.159 61,221.5C 73.562,212.607 86.3953,204.107 99.5,196C 105.22,191.116 107.053,184.95 105,177.5C 104.028,175.695 102.861,174.028 101.5,172.5C 88.0871,163.043 74.5871,153.71 61,144.5C 57.2544,123.287 60.9211,103.621 72,85.5C 80.9694,73.9391 92.4694,66.2724 106.5,62.5C 109.689,62.1417 112.689,61.475 115.5,60.5 Z"/></g>
<g><path style="opacity:1" fill="#696aac" d="M 745.5,63.5 C 751.324,69.1348 755.657,75.8015 758.5,83.5C 755.976,79.7824 753.143,76.1157 750,72.5C 749.128,69.1444 747.628,66.1444 745.5,63.5 Z"/></g>
<g><path style="opacity:1" fill="#6c69b2" d="M 708.5,71.5 C 708.56,70.9569 708.893,70.6236 709.5,70.5C 715.241,74.066 720.574,78.2327 725.5,83C 725.018,84.0084 724.852,85.175 725,86.5C 724.085,85.6721 723.419,84.6721 723,83.5C 722.086,84.6537 721.253,84.487 720.5,83C 720.833,82.6667 721.167,82.3333 721.5,82C 717.542,78.0227 713.208,74.5227 708.5,71.5 Z"/></g>
<g><path style="opacity:0.997" fill="#ec9f34" d="M 765.5,431.5 C 764.833,431.167 764.167,430.833 763.5,430.5C 744.027,441.404 724.027,451.571 703.5,461C 654.475,483.731 603.475,500.564 550.5,511.5C 616.97,444.53 683.803,377.53 751,310.5C 755.339,302.596 754.172,295.429 747.5,289C 740.998,285.546 734.665,285.879 728.5,290C 694.03,324.135 660.03,358.469 626.5,393C 625.016,393.662 623.683,394.496 622.5,395.5C 612.236,406.265 601.736,416.931 591,427.5C 590.333,428.833 589.667,430.167 589,431.5C 583.187,436.838 577.02,441.838 570.5,446.5C 556.677,461.649 542.677,476.315 528.5,490.5C 540.798,430.937 560.465,373.937 587.5,319.5C 588.043,319.44 588.376,319.107 588.5,318.5C 587.667,318.167 586.833,317.833 586,317.5C 495.518,318.494 405.018,318.827 314.5,318.5C 314.628,316.345 314.128,314.345 313,312.5C 311.108,311.87 309.441,310.87 308,309.5C 307.502,306.183 307.335,302.85 307.5,299.5C 310.239,296.84 313.406,294.506 317,292.5C 404.651,293.828 492.318,293.828 580,292.5C 584.471,293.488 588.638,295.155 592.5,297.5C 593.644,299.1 594.811,300.767 596,302.5C 607.04,282.244 619.207,262.744 632.5,244C 616.531,242.676 600.531,242.176 584.5,242.5C 496.5,242.5 408.5,242.5 320.5,242.5C 313.252,243.422 308.418,240.422 306,233.5C 303.333,223.032 307.166,216.698 317.5,214.5C 316.359,216.088 314.859,217.421 313,218.5C 313.065,224.713 312.232,230.713 310.5,236.5C 311.561,239.834 313.895,241.334 317.5,241C 420.5,241.667 523.5,241.667 626.5,241C 630.614,239.226 630.447,238.393 626,238.5C 523.513,239.659 421.013,239.826 318.5,239C 316.714,238.804 315.381,237.971 314.5,236.5C 315.991,231.219 317.158,225.886 318,220.5C 318.191,226.083 318.691,231.583 319.5,237C 420.167,237.667 520.833,237.667 621.5,237C 622.09,235.701 623.09,234.868 624.5,234.5C 627.047,236.029 629.547,237.695 632,239.5C 638.294,237.013 640.627,232.346 639,225.5C 637.8,223.588 636.133,222.255 634,221.5C 634.229,218.19 632.729,216.356 629.5,216C 525.666,215.833 421.999,215.333 318.5,214.5C 370.002,214.519 421.502,214.186 473,213.5C 526.166,214.033 579.333,214.533 632.5,215C 634.167,216.167 635.833,217.333 637.5,218.5C 639.287,222.254 640.954,225.921 642.5,229.5C 647.877,223.617 652.711,217.284 657,210.5C 670.727,195.607 684.894,181.274 699.5,167.5C 702.815,167.028 705.149,165.195 706.5,162C 707.833,161.667 709.167,161.333 710.5,161C 712.698,157.977 715.031,155.144 717.5,152.5C 717.5,151.833 717.833,151.5 718.5,151.5C 726.703,147.288 734.036,141.955 740.5,135.5C 748.26,129.443 756.593,124.109 765.5,119.5C 766.95,118.15 767.617,116.484 767.5,114.5C 778.478,109.679 789.478,104.845 800.5,100C 814.651,96.04 828.651,91.7067 842.5,87C 847.22,86.7787 851.887,86.2787 856.5,85.5C 871.305,87.8538 885.972,91.0205 900.5,95C 927.452,106.957 943.619,127.457 949,156.5C 950.689,166.425 951.856,176.258 952.5,186C 950.345,203.795 946.178,221.295 940,238.5C 936.146,245.179 930.312,248.346 922.5,248C 912.644,248.585 902.811,249.419 893,250.5C 890.966,250.646 889.299,249.98 888,248.5C 887.535,249.931 886.701,251.097 885.5,252C 891.875,262.584 898.375,273.084 905,283.5C 909.956,292.105 909.623,300.439 904,308.5C 866.347,359.333 820.181,400.333 765.5,431.5 Z"/></g>
<g><path style="opacity:1" fill="#ef9e34" d="M 426.5,137.5 C 494.168,137.77 561.835,138.27 629.5,139C 632.932,139.116 635.932,140.283 638.5,142.5C 645.293,155.582 641.626,164.248 627.5,168.5C 575.869,167.128 524.202,166.128 472.5,165.5C 421.179,166.713 369.845,167.213 318.5,167C 310.009,164.88 305.675,159.38 305.5,150.5C 306.436,145.725 309.102,142.225 313.5,140C 351.31,138.885 388.976,138.051 426.5,137.5 Z"/></g>
<g><path style="opacity:1" fill="#d6ad65" d="M 740.5,135.5 C 734.036,141.955 726.703,147.288 718.5,151.5C 725.163,145.176 732.496,139.843 740.5,135.5 Z"/></g>
<g><path style="opacity:1" fill="#dbaa63" d="M 717.5,152.5 C 715.031,155.144 712.698,157.977 710.5,161C 709.167,161.333 707.833,161.667 706.5,162C 705.149,165.195 702.815,167.028 699.5,167.5C 704.91,161.753 710.91,156.753 717.5,152.5 Z"/></g>
<g><path style="opacity:1" fill="#f19e34" d="M 317.5,214.5 C 317.833,214.5 318.167,214.5 318.5,214.5C 421.999,215.333 525.666,215.833 629.5,216C 632.729,216.356 634.229,218.19 634,221.5C 636.133,222.255 637.8,223.588 639,225.5C 640.627,232.346 638.294,237.013 632,239.5C 629.547,237.695 627.047,236.029 624.5,234.5C 623.09,234.868 622.09,235.701 621.5,237C 520.833,237.667 420.167,237.667 319.5,237C 318.691,231.583 318.191,226.083 318,220.5C 317.158,225.886 315.991,231.219 314.5,236.5C 315.381,237.971 316.714,238.804 318.5,239C 421.013,239.826 523.513,239.659 626,238.5C 630.447,238.393 630.614,239.226 626.5,241C 523.5,241.667 420.5,241.667 317.5,241C 313.895,241.334 311.561,239.834 310.5,236.5C 312.232,230.713 313.065,224.713 313,218.5C 314.859,217.421 316.359,216.088 317.5,214.5 Z"/></g>
<g><path style="opacity:1" fill="#d59e46" d="M 320.5,242.5 C 408.5,242.5 496.5,242.5 584.5,242.5C 496.5,245.091 408.5,245.091 320.5,242.5 Z"/></g>
<g><path style="opacity:1" fill="#6862d8" d="M 550.5,511.5 C 549.833,512.833 548.833,513.833 547.5,514.5C 547.189,513.522 546.522,512.855 545.5,512.5C 537.348,515.288 529.015,517.288 520.5,518.5C 522.5,509.833 524.5,501.167 526.5,492.5C 526.833,491.5 527.5,490.833 528.5,490.5C 542.677,476.315 556.677,461.649 570.5,446.5C 577.02,441.838 583.187,436.838 589,431.5C 589.667,430.167 590.333,428.833 591,427.5C 601.736,416.931 612.236,406.265 622.5,395.5C 623.683,394.496 625.016,393.662 626.5,393C 660.03,358.469 694.03,324.135 728.5,290C 734.665,285.879 740.998,285.546 747.5,289C 754.172,295.429 755.339,302.596 751,310.5C 683.803,377.53 616.97,444.53 550.5,511.5 Z"/></g>
<g><path style="opacity:1" fill="#e7a141" d="M 592.5,297.5 C 588.638,295.155 584.471,293.488 580,292.5C 492.318,293.828 404.651,293.828 317,292.5C 313.406,294.506 310.239,296.84 307.5,299.5C 307.335,302.85 307.502,306.183 308,309.5C 309.441,310.87 311.108,311.87 313,312.5C 314.128,314.345 314.628,316.345 314.5,318.5C 311.9,317.081 309.4,315.415 307,313.5C 302.73,299.837 307.564,292.337 321.5,291C 410.187,288.821 498.854,289.154 587.5,292C 590.079,293.076 591.746,294.909 592.5,297.5 Z"/></g>
<g><path style="opacity:1" fill="#e0a643" d="M 587.5,319.5 C 572.389,319.443 557.056,319.443 541.5,319.5C 468.167,319.5 394.833,319.5 321.5,319.5C 318.941,319.802 316.607,319.468 314.5,318.5C 405.018,318.827 495.518,318.494 586,317.5C 586.833,317.833 587.667,318.167 588.5,318.5C 588.376,319.107 588.043,319.44 587.5,319.5 Z"/></g>
<g><path style="opacity:1" fill="#d1a554" d="M 321.5,319.5 C 394.833,319.5 468.167,319.5 541.5,319.5C 468.166,322.033 394.832,322.033 321.5,319.5 Z"/></g>
<g><path style="opacity:1" fill="#d8a258" d="M 542.5,393.5 C 544.608,390.051 546.275,386.384 547.5,382.5C 547.226,376.491 544.56,371.991 539.5,369C 468.183,367.543 396.85,367.043 325.5,367.5C 359.166,366.622 392.999,365.956 427,365.5C 464.856,365.871 502.689,366.704 540.5,368C 548.741,373.386 550.908,380.552 547,389.5C 545.629,391.041 544.129,392.375 542.5,393.5 Z"/></g>
<g><path style="opacity:1" fill="#ed9f34" d="M 325.5,367.5 C 396.85,367.043 468.183,367.543 539.5,369C 544.56,371.991 547.226,376.491 547.5,382.5C 546.275,386.384 544.608,390.051 542.5,393.5C 540.974,395.13 538.974,395.963 536.5,396C 463.166,397.962 389.833,397.962 316.5,396C 309.201,393.695 305.201,388.695 304.5,381C 306.863,369.492 313.863,364.992 325.5,367.5 Z"/></g>
<g><path style="opacity:1" fill="#ed9f35" d="M 480.5,472.5 C 427.167,472.5 373.833,472.5 320.5,472.5C 310.92,472.422 305.586,467.589 304.5,458C 305.631,452.74 308.298,448.407 312.5,445C 345.477,443.718 378.477,442.884 411.5,442.5C 444.528,442.869 477.528,443.702 510.5,445C 521.665,453.303 521.999,461.97 511.5,471C 501.271,472.451 490.938,472.951 480.5,472.5 Z"/></g>
<g><path style="opacity:1" fill="#918fe0" d="M 763.5,430.5 C 764.167,430.833 764.833,431.167 765.5,431.5C 765.832,467.004 765.498,502.337 764.5,537.5C 764.82,501.79 764.487,466.124 763.5,430.5 Z"/></g>
<g><path style="opacity:1" fill="#e1a358" d="M 320.5,472.5 C 373.833,472.5 427.167,472.5 480.5,472.5C 427.166,475.08 373.833,475.08 320.5,472.5 Z"/></g>
<g><path style="opacity:1" fill="#9596c6" d="M 183.5,567.5 C 182.501,470.335 182.167,373.001 182.5,275.5C 135.997,275.832 89.6637,275.499 43.5,274.5C 90.2179,275.159 136.718,274.492 183,272.5C 183.5,370.833 183.667,469.166 183.5,567.5 Z"/></g>
<g><path style="opacity:1" fill="#ef9e33" d="M 526.5,492.5 C 524.5,501.167 522.5,509.833 520.5,518.5C 529.015,517.288 537.348,515.288 545.5,512.5C 546.522,512.855 547.189,513.522 547.5,514.5C 520.729,541.772 493.729,568.938 466.5,596C 522.489,597.453 578.489,598.453 634.5,599C 639.599,602.355 642.266,607.188 642.5,613.5C 642.191,619.308 639.524,623.475 634.5,626C 527.828,629.059 421.162,629.059 314.5,626C 308.26,623.54 305.26,618.873 305.5,612C 305.659,605.624 308.659,601.291 314.5,599C 352.494,597.874 390.494,597.04 428.5,596.5C 428.894,592.594 430.06,588.928 432,585.5C 443.422,573.91 454.922,562.577 466.5,551.5C 467.043,551.44 467.376,551.107 467.5,550.5C 460.532,549.503 453.532,549.17 446.5,549.5C 432.78,549.262 419.113,549.929 405.5,551.5C 375.517,550.643 345.517,549.81 315.5,549C 310.74,547.904 307.573,545.071 306,540.5C 303.266,531.906 305.766,525.406 313.5,521C 369.159,518.138 424.825,518.138 480.5,521C 484.039,522.907 486.539,525.74 488,529.5C 500.452,516.544 513.285,504.21 526.5,492.5 Z"/></g>
<g><path style="opacity:0.022" fill="#000000" d="M 23.5,507.5 C 29.873,507.368 32.373,510.368 31,516.5C 28.8328,519.287 25.9994,520.12 22.5,519C 18.2968,514.731 18.6301,510.897 23.5,507.5 Z"/></g>
<g><path style="opacity:1" fill="#c58b66" d="M 446.5,549.5 C 453.532,549.17 460.532,549.503 467.5,550.5C 467.376,551.107 467.043,551.44 466.5,551.5C 459.833,550.833 453.167,550.167 446.5,549.5 Z"/></g>
<g><path style="opacity:1" fill="#8785d6" d="M 755.5,582.5 C 760.781,584.683 763.948,588.683 765,594.5C 765.5,618.831 765.667,643.164 765.5,667.5C 765.167,667.5 764.833,667.5 764.5,667.5C 764.096,643.841 763.929,620.175 764,596.5C 763.147,594.875 762.147,594.542 761,595.5C 761.374,593.231 761.374,590.898 761,588.5C 758.96,586.63 757.127,584.63 755.5,582.5 Z"/></g>
<g><path style="opacity:1" fill="#7b7ab8" d="M 200.5,634.5 C 198.712,637.387 196.878,640.387 195,643.5C 188.958,646.228 185.291,650.895 184,657.5C 183.5,723.832 183.333,790.166 183.5,856.5C 182.335,789.668 182.168,722.668 183,655.5C 187.164,647.164 192.997,640.164 200.5,634.5 Z"/></g>
<g><path style="opacity:1" fill="#9395c4" d="M 764.5,667.5 C 764.833,667.5 765.167,667.5 765.5,667.5C 765.5,669.167 765.5,670.833 765.5,672.5C 802.004,672.168 838.337,672.502 874.5,673.5C 837.498,673.667 800.498,673.5 763.5,673C 764.406,671.301 764.739,669.467 764.5,667.5 Z"/></g>
<g><path style="opacity:1" fill="#f09d34" d="M 402.5,702.5 C 424.181,702.693 445.847,703.36 467.5,704.5C 480.859,722.026 494.026,739.692 507,757.5C 515.626,766.58 524.292,766.58 533,757.5C 545.974,739.692 559.141,722.026 572.5,704.5C 619.663,703.61 666.83,702.943 714,702.5C 761.497,703.279 808.997,703.612 856.5,703.5C 856.957,736.331 857.291,769.164 857.5,802C 857.628,824.531 857.128,847.031 856,869.5C 849.586,894.247 834.086,910.081 809.5,917C 654.502,918.101 499.502,918.601 344.5,918.5C 344.351,917.448 344.517,916.448 345,915.5C 358.41,899.498 365.577,880.998 366.5,860C 366.497,816.927 366.163,773.76 365.5,730.5C 366.011,721.471 366.678,712.471 367.5,703.5C 379.345,703.828 391.012,703.495 402.5,702.5 Z"/></g>
<g><path style="opacity:1" fill="#6965b3" d="M 183.5,856.5 C 185.061,864.183 186.061,871.85 186.5,879.5C 183.855,872.049 182.855,864.383 183.5,856.5 Z"/></g>
<g><path style="opacity:1" fill="#696aab" d="M 878.5,895.5 C 875.657,903.198 871.324,909.865 865.5,915.5C 867.628,912.856 869.128,909.856 870,906.5C 873.143,902.884 875.976,899.218 878.5,895.5 Z"/></g>
<g><path style="opacity:1" fill="#6b6ab5" d="M 191.5,895.5 C 195.869,899.201 199.035,903.868 201,909.5C 204.572,910.979 206.406,913.646 206.5,917.5C 200.03,911.244 195.03,903.911 191.5,895.5 Z"/></g>
</svg>
